<svg width="16" height="16" viewBox="0 0 16 16" fill="none" xmlns="http://www.w3.org/2000/svg">
<path fill-rule="evenodd" clip-rule="evenodd" d="M9.5 12C6.46243 12 4 9.53757 4 6.5C4 3.46243 6.46243 1 9.5 1C12.5376 1 15 3.46243 15 6.5C15 9.53757 12.5376 12 9.5 12ZM3 6.5C3 10.0899 5.91015 13 9.5 13C13.0899 13 16 10.0899 16 6.5C16 2.91015 13.0899 0 9.5 0C5.91015 0 3 2.91015 3 6.5Z" fill="white"/>
<path d="M5.65611 11.7422C5.62662 11.7822 5.59377 11.8204 5.55757 11.8566L1.7071 15.7071C1.31658 16.0976 0.683414 16.0976 0.292891 15.7071C-0.0976334 15.3166 -0.0976334 14.6834 0.292891 14.2929L4.14335 10.4424C4.17956 10.4062 4.21785 10.3734 4.25784 10.3439C4.65011 10.878 5.12204 11.3499 5.65611 11.7422Z" fill="white"/>
</svg>
